<svg xmlns="http://www.w3.org/2000/svg">
 <!-- Created with SVG Editor - http://github.com/mzalive/SVG Editor/ -->
 <g>
  <title>background</title>
  <rect fill="#ffffff" id="canvas_background" y="-1" x="-1"/>
  <g display="none" overflow="visible" y="0" x="0" height="100%" width="100%" id="canvasGrid">
   <rect fill="url(#gridpattern)" stroke-width="0" y="0" x="0" height="100%" width="100%"/>
  </g>
 </g>
 <g>
  <title>Layer 1</title>
  <defs><path id="gl_1" d="M1.734375,0 l0,-15.035156 l2.3085938,0 l0,6.5742188 l6.3632812,0 l0,-6.5742188 l2.3203125,0 l0,15.035156 l-2.3203125,0 l0,-6.7265625 l-6.3632812,0 l0,6.7265625 l-2.3085938,0 Z"/></defs><use href="#gl_1" transform="matrix(0.9963 0 0 0.9844 1.9707 20.72)" fill="rgba(0,0,0,1)" stroke-width="0" stroke-linejoin="miter" stroke-miterlimit="4" stroke-linecap="butt" stroke-dashoffset="0" stroke-dasharray="5 2 2 2 2 2" stroke="rgba(255,255,255,1)"/><defs><path id="gl_2" d="M12.8671875,-0.50390625 c-1.6015625,0.53125 -3.0703125,0.796875 -4.40625,0.796875 c-2.1875,0 -3.8671875,-0.5625 -5.0390625,-1.6875 c-1.1796875,-1.125 -1.7695312,-2.734375 -1.7695312,-4.828125 c0,-1.9765625 0.5625,-3.6015625 1.6875,-4.875 c1.1328125,-1.2734375 2.5703125,-1.9101562 4.3125,-1.9101562 c1.7578125,0 3.0507812,0.52734375 3.8789062,1.5820312 c0.8359375,1.0546875 1.2539062,2.6953125 1.2539062,4.921875 l0,0.73828125 l-8.671875,0 c0.171875,2.8828125 1.7265625,4.3242188 4.6640625,4.3242188 c1.2421875,0 2.6054688,-0.296875 4.0898438,-0.890625 l0,1.828125 ZM4.1835938,-7.5 l6.140625,0 l0,-0.328125 c0,-2.296875 -0.95703125,-3.4453125 -2.8710938,-3.4453125 c-0.921875,0 -1.671875,0.33203125 -2.25,0.99609375 c-0.5703125,0.6640625 -0.91015625,1.5898438 -1.0195312,2.7773438 Z"/></defs><use href="#gl_2" transform="matrix(0.9963 0 0 0.9844 16.3787 20.72)" fill="rgba(0,0,0,1)" stroke-width="0" stroke-linejoin="miter" stroke-miterlimit="4" stroke-linecap="butt" stroke-dashoffset="0" stroke-dasharray="5 2 2 2 2 2" stroke="rgba(255,255,255,1)"/><defs><path id="gl_3" d="M1.40625,0 l0,-12.7265625 l2.5429688,0 l3.3046875,9.949219 l3.1054688,-9.949219 l2.6835938,0 l0,12.7265625 l-2.1679688,0 l0,-10.136719 l-2.9179688,9.269531 l-2.0039062,0 l-2.7421875,-8.261719 l0,9.128906 l-1.8046875,0 Z"/></defs><use href="#gl_3" transform="matrix(0.9963 0 0 0.9844 30.7867 20.72)" fill="rgba(0,0,0,1)" stroke-width="0" stroke-linejoin="miter" stroke-miterlimit="4" stroke-linecap="butt" stroke-dashoffset="0" stroke-dasharray="5 2 2 2 2 2" stroke="rgba(255,255,255,1)"/><use href="#gl_2" transform="matrix(0.9963 0 0 0.9844 45.1947 20.72)" fill="rgba(0,0,0,1)" stroke-width="0" stroke-linejoin="miter" stroke-miterlimit="4" stroke-linecap="butt" stroke-dashoffset="0" stroke-dasharray="5 2 2 2 2 2" stroke="rgba(255,255,255,1)"/><defs><path id="gl_4" d="M1.875,0 l0,-12.7265625 l2.3085938,0 l0,10.9921875 l5.0625,0 l0,-10.9921875 l2.3203125,0 l0,10.9921875 l2.3085938,0 l0,4.6289062 l-2.1679688,0 l0,-2.8945312 l-9.832031,0 Z"/></defs><use href="#gl_4" transform="matrix(0.9963 0 0 0.9844 59.6028 20.72)" fill="rgba(0,0,0,1)" stroke-width="0" stroke-linejoin="miter" stroke-miterlimit="4" stroke-linecap="butt" stroke-dashoffset="0" stroke-dasharray="5 2 2 2 2 2" stroke="rgba(255,255,255,1)"/><defs><path id="gl_5" d="M5.1796875,-5.4257812 l0,5.4257812 l-2.3085938,0 l0,-12.7265625 l2.3085938,0 l0,5.5664062 l0.50390625,-0.01171875 c0.7421875,0 1.2617188,-0.1171875 1.5585938,-0.3515625 c0.296875,-0.2421875 0.6796875,-0.85546875 1.1484375,-1.8398438 l0.2578125,-0.5390625 c0.5625,-1.1796875 1.0703125,-1.9453125 1.5234375,-2.296875 c0.4453125,-0.3515625 1.1445312,-0.52734375 2.0976562,-0.52734375 l0,1.734375 c-0.4609375,0 -0.8046875,0.109375 -1.03125,0.328125 c-0.2265625,0.2109375 -0.52734375,0.70703125 -0.90234375,1.4882812 l-0.22265625,0.46875 l-0.29296875,0.64453125 c-0.34375,0.7109375 -0.90234375,1.265625 -1.6757812,1.6640625 c0.640625,0.21875 1.125,0.5078125 1.453125,0.8671875 c0.328125,0.3515625 0.7734375,1.0625 1.3359375,2.1328125 l0.46875,0.890625 c0.546875,1.0390625 1.0351562,1.875 1.4648438,2.5078125 l-2.5546875,0 c-0.21875,-0.4375 -0.46484375,-0.90234375 -0.73828125,-1.3945312 l-0.6328125,-1.1132812 c-0.8125,-1.453125 -1.4882812,-2.4257812 -2.0273438,-2.9179688 l-1.734375,0 Z"/></defs><use href="#gl_5" transform="matrix(0.9963 0 0 0.9844 74.0108 20.72)" fill="rgba(0,0,0,1)" stroke-width="0" stroke-linejoin="miter" stroke-miterlimit="4" stroke-linecap="butt" stroke-dashoffset="0" stroke-dasharray="5 2 2 2 2 2" stroke="rgba(255,255,255,1)"/><defs><path id="gl_6" d="M1.9101562,0 l0,-12.7265625 l2.2382812,0 l0,9.421875 l6.2226562,-9.421875 l2.1679688,0 l0,12.7265625 l-2.1679688,0 l0,-9.292969 l-6.1289062,9.292969 l-2.3320312,0 Z"/></defs><use href="#gl_6" transform="matrix(0.9963 0 0 0.9844 88.4188 20.72)" fill="rgba(0,0,0,1)" stroke-width="0" stroke-linejoin="miter" stroke-miterlimit="4" stroke-linecap="butt" stroke-dashoffset="0" stroke-dasharray="5 2 2 2 2 2" stroke="rgba(255,255,255,1)"/><defs><path id="gl_7" d="M1.9101562,0 l0,-12.7265625 l2.2382812,0 l0,9.421875 l6.2226562,-9.421875 l2.1679688,0 l0,12.7265625 l-2.1679688,0 l0,-9.292969 l-6.1289062,9.292969 l-2.3320312,0 ZM6.3164062,-18.503906 l1.4414062,0 c0.25,1.15625 1.0703125,1.734375 2.4609375,1.734375 c1.390625,0 2.2109375,-0.578125 2.4609375,-1.734375 l1.4414062,0 c-0.1171875,1.0546875 -0.53125,1.8945312 -1.2421875,2.5195312 c-0.7109375,0.6328125 -1.5976562,0.94921875 -2.6601562,0.94921875 c-1.0625,0 -1.9453125,-0.3125 -2.6484375,-0.9375 c-0.7109375,-0.6328125 -1.1289062,-1.4765625 -1.2539062,-2.53125 Z"/></defs><use href="#gl_7" transform="matrix(0.9963 0 0 0.9844 102.8268 20.72)" fill="rgba(0,0,0,1)" stroke-width="0" stroke-linejoin="miter" stroke-miterlimit="4" stroke-linecap="butt" stroke-dashoffset="0" stroke-dasharray="5 2 2 2 2 2" stroke="rgba(255,255,255,1)"/><defs><path id="gl_8" d="M0.609375,2.8945312 l0,-4.6289062 l1.1835938,0 c0.9140625,-1.3671875 1.5585938,-2.8085938 1.9335938,-4.3242188 c0.375,-1.5078125 0.5625,-3.3945312 0.5625,-5.6601562 l0,-1.0078125 l7.2304688,0 l0,10.9921875 l2.3203125,0 l0,4.6289062 l-2.1679688,0 l0,-2.8945312 l-8.894531,0 l0,2.8945312 l-2.1679688,0 ZM9.2109375,-1.734375 l0,-9.2578125 l-2.7890625,0 l0,0.28125 c0,3.28125 -0.71875,6.2734375 -2.15625,8.9765625 l4.9453125,0 Z"/></defs><use href="#gl_8" transform="matrix(0.9963 0 0 0.9844 131.6429 20.72)" fill="rgba(0,0,0,1)" stroke-width="0" stroke-linejoin="miter" stroke-miterlimit="4" stroke-linecap="butt" stroke-dashoffset="0" stroke-dasharray="5 2 2 2 2 2" stroke="rgba(255,255,255,1)"/><defs><path id="gl_9" d="M7.2304688,0.29296875 c-1.8671875,0 -3.3320312,-0.59375 -4.3945312,-1.78125 c-1.0703125,-1.1796875 -1.6054688,-2.8046875 -1.6054688,-4.875 c0,-2.0625 0.53515625,-3.6875 1.6054688,-4.875 c1.0703125,-1.1796875 2.5351562,-1.7695312 4.3945312,-1.7695312 c1.8671875,0 3.3320312,0.59375 4.3945312,1.78125 c1.0703125,1.1796875 1.6054688,2.8007812 1.6054688,4.8632812 c0,2.0703125 -0.53125,3.6992188 -1.59375,4.8867188 c-1.0703125,1.1796875 -2.5390625,1.7695312 -4.40625,1.7695312 ZM7.2304688,-1.4414062 c1.109375,0 1.9765625,-0.43359375 2.6015625,-1.3007812 c0.625,-0.8671875 0.9375,-2.0742188 0.9375,-3.6210938 c0,-1.5390625 -0.3125,-2.7421875 -0.9375,-3.609375 c-0.625,-0.8671875 -1.4921875,-1.3007812 -2.6015625,-1.3007812 c-1.109375,0 -1.9765625,0.43359375 -2.6015625,1.3007812 c-0.625,0.8671875 -0.9375,2.0703125 -0.9375,3.609375 c0,1.546875 0.3125,2.7539062 0.9375,3.6210938 c0.625,0.8671875 1.4921875,1.3007812 2.6015625,1.3007812 Z"/></defs><use href="#gl_9" transform="matrix(0.9963 0 0 0.9844 146.0509 20.72)" fill="rgba(0,0,0,1)" stroke-width="0" stroke-linejoin="miter" stroke-miterlimit="4" stroke-linecap="butt" stroke-dashoffset="0" stroke-dasharray="5 2 2 2 2 2" stroke="rgba(255,255,255,1)"/><defs><path id="gl_10" d="M2.8945312,0 l0,-12.7265625 l10.40625,0 l0,1.734375 l-8.097656,0 l0,10.9921875 l-2.3085938,0 Z"/></defs><use href="#gl_10" transform="matrix(0.9963 0 0 0.9844 160.4589 20.72)" fill="rgba(0,0,0,1)" stroke-width="0" stroke-linejoin="miter" stroke-miterlimit="4" stroke-linecap="butt" stroke-dashoffset="0" stroke-dasharray="5 2 2 2 2 2" stroke="rgba(255,255,255,1)"/><defs><path id="gl_11" d="M1.5234375,0 l0,-15.035156 l4.5351562,0 c5,0 7.5,2.40625 7.5,7.21875 c0,2.2265625 -0.54296875,4.0273438 -1.6289062,5.4023438 c-0.6796875,0.8671875 -1.5195312,1.4882812 -2.5195312,1.8632812 c-0.9921875,0.3671875 -2.3164062,0.55078125 -3.9726562,0.55078125 l-3.9140625,0 ZM3.8320312,-1.734375 l1.1601562,0 c2.203125,0 3.7734375,-0.4375 4.7109375,-1.3125 c0.9296875,-0.875 1.3945312,-2.34375 1.3945312,-4.40625 c0,-2.09375 -0.421875,-3.59375 -1.265625,-4.5 c-0.84375,-0.8984375 -2.25,-1.3476562 -4.21875,-1.3476562 l-1.78125,0 l0,11.566406 Z"/></defs><use href="#gl_11" transform="matrix(0.9963 0 0 0.9844 189.2749 20.72)" fill="rgba(0,0,0,1)" stroke-width="0" stroke-linejoin="miter" stroke-miterlimit="4" stroke-linecap="butt" stroke-dashoffset="0" stroke-dasharray="5 2 2 2 2 2" stroke="rgba(255,255,255,1)"/><defs><path id="gl_12" d="M12.8671875,-0.50390625 c-1.6015625,0.53125 -3.0703125,0.796875 -4.40625,0.796875 c-2.1875,0 -3.8671875,-0.5625 -5.0390625,-1.6875 c-1.1796875,-1.125 -1.7695312,-2.734375 -1.7695312,-4.828125 c0,-1.9765625 0.5625,-3.6015625 1.6875,-4.875 c1.1328125,-1.2734375 2.5703125,-1.9101562 4.3125,-1.9101562 c1.7578125,0 3.0507812,0.52734375 3.8789062,1.5820312 c0.8359375,1.0546875 1.2539062,2.6953125 1.2539062,4.921875 l0,0.73828125 l-8.671875,0 c0.171875,2.8828125 1.7265625,4.3242188 4.6640625,4.3242188 c1.2421875,0 2.6054688,-0.296875 4.0898438,-0.890625 l0,1.828125 ZM4.1835938,-7.5 l6.140625,0 l0,-0.328125 c0,-2.296875 -0.95703125,-3.4453125 -2.8710938,-3.4453125 c-0.921875,0 -1.671875,0.33203125 -2.25,0.99609375 c-0.5703125,0.6640625 -0.91015625,1.5898438 -1.0195312,2.7773438 Z"/></defs><use href="#gl_12" transform="matrix(0.9963 0 0 0.9844 203.683 20.72)" fill="rgba(0,0,0,1)" stroke-width="0" stroke-linejoin="miter" stroke-miterlimit="4" stroke-linecap="butt" stroke-dashoffset="0" stroke-dasharray="5 2 2 2 2 2" stroke="rgba(255,255,255,1)"/><defs><path id="gl_13" d="M12.328125,-12.7265625 l0,12.7265625 l-2.3085938,0 l0,-2.390625 c-1.0625,1.7890625 -2.5117188,2.6835938 -4.3476562,2.6835938 c-2.40625,0 -3.609375,-1.4375 -3.609375,-4.3125 l0,-8.707031 l2.3085938,0 l0,8.074219 c0,1 0.15234375,1.7109375 0.45703125,2.1328125 c0.3046875,0.4140625 0.82421875,0.62109375 1.5585938,0.62109375 c1.15625,0 2.3671875,-0.8359375 3.6328125,-2.5078125 l0,-8.3203125 l2.3085938,0 Z"/></defs><use href="#gl_13" transform="matrix(0.9963 0 0 0.9844 218.091 20.72)" fill="rgba(0,0,0,1)" stroke-width="0" stroke-linejoin="miter" stroke-miterlimit="4" stroke-linecap="butt" stroke-dashoffset="0" stroke-dasharray="5 2 2 2 2 2" stroke="rgba(255,255,255,1)"/><defs><path id="gl_14" d="M12.9140625,-0.01171875 c-1.15625,0.203125 -2.2734375,0.3046875 -3.3515625,0.3046875 c-1.8828125,0 -3.1640625,-0.3359375 -3.84375,-1.0078125 c-0.6796875,-0.6796875 -1.0195312,-1.9609375 -1.0195312,-3.84375 l0,-6.140625 l-3.1757812,0 l0,-1.734375 l3.1757812,0 l0,-2.7421875 l2.3203125,0 l0,2.7421875 l5.6367188,0 l0,1.734375 l-5.6367188,0 l0,6.515625 c0,0.7265625 0.046875,1.2265625 0.140625,1.5 c0.0859375,0.2734375 0.27734375,0.51171875 0.57421875,0.71484375 c0.53125,0.3515625 1.3046875,0.52734375 2.3203125,0.52734375 c0.9609375,0 1.9140625,-0.109375 2.859375,-0.328125 l0,1.7578125 Z"/></defs><use href="#gl_14" transform="matrix(0.9963 0 0 0.9844 232.499 20.72)" fill="rgba(0,0,0,1)" stroke-width="0" stroke-linejoin="miter" stroke-miterlimit="4" stroke-linecap="butt" stroke-dashoffset="0" stroke-dasharray="5 2 2 2 2 2" stroke="rgba(255,255,255,1)"/><defs><path id="gl_15" d="M2.1914062,-0.515625 l0,-2.0859375 c1.7890625,0.7734375 3.3359375,1.1601562 4.640625,1.1601562 c0.9375,0 1.7109375,-0.1875 2.3203125,-0.5625 c0.6171875,-0.3828125 0.92578125,-0.86328125 0.92578125,-1.4414062 c0,-0.7421875 -0.73046875,-1.3476562 -2.1914062,-1.8164062 l-2.4726562,-0.80859375 c-1.9296875,-0.625 -2.8945312,-1.7265625 -2.8945312,-3.3046875 c0,-1.15625 0.4375,-2.0507812 1.3125,-2.6835938 c0.8671875,-0.6328125 2.0976562,-0.94921875 3.6914062,-0.94921875 c1.1953125,0 2.5820312,0.18359375 4.1601562,0.55078125 l0,1.875 c-1.5234375,-0.4609375 -2.9140625,-0.69140625 -4.171875,-0.69140625 c-0.84375,0 -1.515625,0.15234375 -2.015625,0.45703125 c-0.5078125,0.3046875 -0.76171875,0.71484375 -0.76171875,1.2304688 c0,0.6328125 0.57421875,1.1484375 1.7226562,1.546875 l2.9179688,1.0195312 c1.0625,0.375 1.828125,0.8203125 2.296875,1.3359375 c0.4609375,0.5234375 0.69140625,1.1992188 0.69140625,2.0273438 c0,1.203125 -0.49609375,2.1640625 -1.4882812,2.8828125 c-0.9921875,0.7109375 -2.3242188,1.0664062 -3.9960938,1.0664062 c-1.4609375,0 -3.0234375,-0.26953125 -4.6875,-0.80859375 Z"/></defs><use href="#gl_15" transform="matrix(0.9963 0 0 0.9844 246.907 20.72)" fill="rgba(0,0,0,1)" stroke-width="0" stroke-linejoin="miter" stroke-miterlimit="4" stroke-linecap="butt" stroke-dashoffset="0" stroke-dasharray="5 2 2 2 2 2" stroke="rgba(255,255,255,1)"/><defs><path id="gl_16" d="M12.925781,-0.41015625 c-1.3671875,0.46875 -2.7304688,0.703125 -4.0898438,0.703125 c-2.21875,0 -3.9296875,-0.578125 -5.1328125,-1.734375 c-1.1953125,-1.15625 -1.7929688,-2.796875 -1.7929688,-4.921875 c0,-2.0859375 0.59375,-3.7148438 1.78125,-4.8867188 c1.1796875,-1.171875 2.8242188,-1.7578125 4.9335938,-1.7578125 c1.34375,0 2.6992188,0.203125 4.0664062,0.609375 l0,1.9335938 c-1.5078125,-0.5390625 -2.7929688,-0.80859375 -3.8554688,-0.80859375 c-1.390625,0 -2.484375,0.4375 -3.28125,1.3125 c-0.7890625,0.875 -1.1835938,2.0742188 -1.1835938,3.5976562 c0,1.5390625 0.421875,2.7460938 1.265625,3.6210938 c0.8515625,0.8671875 2.0234375,1.3007812 3.515625,1.3007812 c1.1171875,0 2.375,-0.26171875 3.7734375,-0.78515625 l0,1.8164062 Z"/></defs><use href="#gl_16" transform="matrix(0.9963 0 0 0.9844 261.3151 20.72)" fill="rgba(0,0,0,1)" stroke-width="0" stroke-linejoin="miter" stroke-miterlimit="4" stroke-linecap="butt" stroke-dashoffset="0" stroke-dasharray="5 2 2 2 2 2" stroke="rgba(255,255,255,1)"/><defs><path id="gl_17" d="M2.1328125,0 l0,-18.503906 l2.3085938,0 l0,5.7773438 l0,2.390625 c1.0625,-1.78125 2.5078125,-2.671875 4.3359375,-2.671875 c2.4140625,0 3.6210938,1.4335938 3.6210938,4.3007812 l0,8.707031 l-2.3085938,0 l0,-8.074219 c0,-0.9921875 -0.15625,-1.6992188 -0.46875,-2.1210938 c-0.3046875,-0.4140625 -0.8203125,-0.62109375 -1.546875,-0.62109375 c-1.15625,0 -2.3671875,0.83203125 -3.6328125,2.4960938 l0,8.3203125 l-2.3085938,0 Z"/></defs><use href="#gl_17" transform="matrix(0.9963 0 0 0.9844 275.7231 20.72)" fill="rgba(0,0,0,1)" stroke-width="0" stroke-linejoin="miter" stroke-miterlimit="4" stroke-linecap="butt" stroke-dashoffset="0" stroke-dasharray="5 2 2 2 2 2" stroke="rgba(255,255,255,1)"/><use href="#gl_12" transform="matrix(0.9963 0 0 0.9844 290.1311 20.72)" fill="rgba(0,0,0,1)" stroke-width="0" stroke-linejoin="miter" stroke-miterlimit="4" stroke-linecap="butt" stroke-dashoffset="0" stroke-dasharray="5 2 2 2 2 2" stroke="rgba(255,255,255,1)"/><use href="#gl_11" transform="matrix(0.9963 0 0 0.9844 318.9471 20.72)" fill="rgba(0,0,0,1)" stroke-width="0" stroke-linejoin="miter" stroke-miterlimit="4" stroke-linecap="butt" stroke-dashoffset="0" stroke-dasharray="5 2 2 2 2 2" stroke="rgba(255,255,255,1)"/><defs><path id="gl_18" d="M7.2304688,0.29296875 c-1.8671875,0 -3.3320312,-0.59375 -4.3945312,-1.78125 c-1.0703125,-1.1796875 -1.6054688,-2.8046875 -1.6054688,-4.875 c0,-2.0625 0.53515625,-3.6875 1.6054688,-4.875 c1.0703125,-1.1796875 2.5351562,-1.7695312 4.3945312,-1.7695312 c1.8671875,0 3.3320312,0.59375 4.3945312,1.78125 c1.0703125,1.1796875 1.6054688,2.8007812 1.6054688,4.8632812 c0,2.0703125 -0.53125,3.6992188 -1.59375,4.8867188 c-1.0703125,1.1796875 -2.5390625,1.7695312 -4.40625,1.7695312 ZM7.2304688,-1.4414062 c1.109375,0 1.9765625,-0.43359375 2.6015625,-1.3007812 c0.625,-0.8671875 0.9375,-2.0742188 0.9375,-3.6210938 c0,-1.5390625 -0.3125,-2.7421875 -0.9375,-3.609375 c-0.625,-0.8671875 -1.4921875,-1.3007812 -2.6015625,-1.3007812 c-1.109375,0 -1.9765625,0.43359375 -2.6015625,1.3007812 c-0.625,0.8671875 -0.9375,2.0703125 -0.9375,3.609375 c0,1.546875 0.3125,2.7539062 0.9375,3.6210938 c0.625,0.8671875 1.4921875,1.3007812 2.6015625,1.3007812 Z"/></defs><use href="#gl_18" transform="matrix(0.9963 0 0 0.9844 333.3552 20.72)" fill="rgba(0,0,0,1)" stroke-width="0" stroke-linejoin="miter" stroke-miterlimit="4" stroke-linecap="butt" stroke-dashoffset="0" stroke-dasharray="5 2 2 2 2 2" stroke="rgba(255,255,255,1)"/><defs><path id="gl_19" d="M2.484375,4.2539062 l0.24609375,-1.9453125 c1.3828125,0.5859375 2.6679688,0.87890625 3.8554688,0.87890625 c2.46875,0 3.703125,-1.1757812 3.703125,-3.5273438 l0.10546875,-2.296875 c-0.96875,1.7578125 -2.3710938,2.6367188 -4.2070312,2.6367188 c-1.453125,0 -2.609375,-0.5546875 -3.46875,-1.6640625 c-0.8515625,-1.1015625 -1.2773438,-2.5898438 -1.2773438,-4.4648438 c0,-2.0390625 0.49609375,-3.6992188 1.4882812,-4.9804688 c0.9921875,-1.2734375 2.28125,-1.9101562 3.8671875,-1.9101562 c1.2421875,0 2.4648438,0.58203125 3.6679688,1.7460938 l0,-1.453125 l2.1679688,0 l0,10.183594 c0,1.6484375 -0.109375,2.8867188 -0.328125,3.7148438 c-0.21875,0.8359375 -0.62890625,1.5742188 -1.2304688,2.2148438 c-0.9609375,1.0234375 -2.4648438,1.5351562 -4.5117188,1.5351562 c-1.203125,0 -2.5625,-0.22265625 -4.078125,-0.66796875 ZM10.324219,-4.5117188 l0,-5.0039062 c-1.0390625,-1.171875 -2.1132812,-1.7578125 -3.2226562,-1.7578125 c-1.0078125,0 -1.7929688,0.4375 -2.3554688,1.3125 c-0.5625,0.875 -0.84375,2.1015625 -0.84375,3.6796875 c0,1.3359375 0.24609375,2.3789062 0.73828125,3.1289062 c0.4921875,0.7578125 1.1796875,1.1367188 2.0625,1.1367188 c1.3671875,0 2.5742188,-0.83203125 3.6210938,-2.4960938 Z"/></defs><use href="#gl_19" transform="matrix(0.9963 0 0 0.9844 347.7632 20.72)" fill="rgba(0,0,0,1)" stroke-width="0" stroke-linejoin="miter" stroke-miterlimit="4" stroke-linecap="butt" stroke-dashoffset="0" stroke-dasharray="5 2 2 2 2 2" stroke="rgba(255,255,255,1)"/><use href="#gl_19" transform="matrix(0.9963 0 0 0.9844 362.1712 20.72)" fill="rgba(0,0,0,1)" stroke-width="0" stroke-linejoin="miter" stroke-miterlimit="4" stroke-linecap="butt" stroke-dashoffset="0" stroke-dasharray="5 2 2 2 2 2" stroke="rgba(255,255,255,1)"/><use href="#gl_12" transform="matrix(0.9963 0 0 0.9844 376.5792 20.72)" fill="rgba(0,0,0,1)" stroke-width="0" stroke-linejoin="miter" stroke-miterlimit="4" stroke-linecap="butt" stroke-dashoffset="0" stroke-dasharray="5 2 2 2 2 2" stroke="rgba(255,255,255,1)"/><defs><path id="gl_20" d="M13.042969,-14.71875 l0,2.1210938 c-1.546875,-0.7109375 -2.9921875,-1.0664062 -4.3359375,-1.0664062 c-1.5546875,0 -2.8320312,0.5703125 -3.8320312,1.7109375 c-1.0078125,1.140625 -1.5117188,2.59375 -1.5117188,4.359375 c0,1.7734375 0.56640625,3.2304688 1.6992188,4.3710938 c1.1328125,1.1328125 2.578125,1.6992188 4.3359375,1.6992188 c0.3984375,0 0.90625,-0.046875 1.5234375,-0.140625 l0,-3.9726562 l-2.8242188,0 l0,-1.734375 l5.1328125,0 l0,6.984375 c-1.5703125,0.5 -3.0585938,0.75 -4.4648438,0.75 c-2.328125,0 -4.21875,-0.72265625 -5.671875,-2.1679688 c-1.4609375,-1.4453125 -2.1914062,-3.3242188 -2.1914062,-5.6367188 c0,-2.3671875 0.7265625,-4.2851562 2.1796875,-5.7539062 c1.453125,-1.46875 3.3515625,-2.203125 5.6953125,-2.203125 c1.328125,0 2.75,0.2265625 4.265625,0.6796875 Z"/></defs><use href="#gl_20" transform="matrix(0.9963 0 0 0.9844 405.3953 20.72)" fill="rgba(0,0,0,1)" stroke-width="0" stroke-linejoin="miter" stroke-miterlimit="4" stroke-linecap="butt" stroke-dashoffset="0" stroke-dasharray="5 2 2 2 2 2" stroke="rgba(255,255,255,1)"/><defs><path id="gl_21" d="M3.609375,0 l0,-12.7265625 l2.3085938,0 l0,2.390625 c1.171875,-1.78125 2.7460938,-2.671875 4.7226562,-2.671875 c0.6953125,0 1.484375,0.09765625 2.3671875,0.29296875 l0,3.609375 l-1.734375,0 l0,-1.7695312 c-0.34375,-0.078125 -0.65625,-0.1171875 -0.9375,-0.1171875 c-0.8828125,0 -1.6601562,0.203125 -2.3320312,0.609375 c-0.6640625,0.4140625 -1.359375,1.1132812 -2.0859375,2.0976562 l0,8.285156 l-2.3085938,0 Z"/></defs><use href="#gl_21" transform="matrix(0.9963 0 0 0.9844 419.8033 20.72)" fill="rgba(0,0,0,1)" stroke-width="0" stroke-linejoin="miter" stroke-miterlimit="4" stroke-linecap="butt" stroke-dashoffset="0" stroke-dasharray="5 2 2 2 2 2" stroke="rgba(255,255,255,1)"/><use href="#gl_12" transform="matrix(0.9963 0 0 0.9844 434.2113 20.72)" fill="rgba(0,0,0,1)" stroke-width="0" stroke-linejoin="miter" stroke-miterlimit="4" stroke-linecap="butt" stroke-dashoffset="0" stroke-dasharray="5 2 2 2 2 2" stroke="rgba(255,255,255,1)"/><defs><path id="gl_22" d="M9.785156,-1.5351562 c-1.3984375,1.171875 -2.7929688,1.7578125 -4.1835938,1.7578125 c-1.1640625,0 -2.1210938,-0.33203125 -2.8710938,-0.99609375 c-0.7578125,-0.6640625 -1.1367188,-1.5039062 -1.1367188,-2.5195312 c0,-1.3203125 0.5859375,-2.3828125 1.7578125,-3.1875 c1.171875,-0.8046875 2.71875,-1.2070312 4.640625,-1.2070312 l1.4296875,0 l0,-1.0898438 c0,-0.8984375 -0.19921875,-1.5390625 -0.59765625,-1.921875 c-0.3984375,-0.3828125 -1.0585938,-0.57421875 -1.9804688,-0.57421875 c-1.3359375,0 -2.71875,0.375 -4.1484375,1.125 l0,-1.9804688 c1.640625,-0.5859375 3.1796875,-0.87890625 4.6171875,-0.87890625 c1.6171875,0 2.7617188,0.3203125 3.4335938,0.9609375 c0.6640625,0.640625 0.99609375,1.7460938 0.99609375,3.3164062 l0,5.3320312 c0,0.765625 0.08203125,1.2890625 0.24609375,1.5703125 c0.1640625,0.2734375 0.47265625,0.41015625 0.92578125,0.41015625 c0.1484375,0 0.390625,-0.0390625 0.7265625,-0.1171875 l0.2109375,1.3828125 c-0.7734375,0.25 -1.359375,0.375 -1.7578125,0.375 c-1.140625,0 -1.9101562,-0.5859375 -2.3085938,-1.7578125 ZM9.421875,-3.0351562 l0,-3.2109375 l-0.69140625,0 c-3.1640625,0 -4.7460938,0.85546875 -4.7460938,2.5664062 c0,0.6171875 0.203125,1.1132812 0.609375,1.4882812 c0.40625,0.375 0.9453125,0.5625 1.6171875,0.5625 c1.0078125,0 2.078125,-0.46875 3.2109375,-1.40625 Z"/></defs><use href="#gl_22" transform="matrix(0.9963 0 0 0.9844 448.6194 20.72)" fill="rgba(0,0,0,1)" stroke-width="0" stroke-linejoin="miter" stroke-miterlimit="4" stroke-linecap="butt" stroke-dashoffset="0" stroke-dasharray="5 2 2 2 2 2" stroke="rgba(255,255,255,1)"/><use href="#gl_14" transform="matrix(0.9963 0 0 0.9844 463.0274 20.72)" fill="rgba(0,0,0,1)" stroke-width="0" stroke-linejoin="miter" stroke-miterlimit="4" stroke-linecap="butt" stroke-dashoffset="0" stroke-dasharray="5 2 2 2 2 2" stroke="rgba(255,255,255,1)"/><use href="#gl_11" transform="matrix(0.9963 0 0 0.9844 491.8434 20.72)" fill="rgba(0,0,0,1)" stroke-width="0" stroke-linejoin="miter" stroke-miterlimit="4" stroke-linecap="butt" stroke-dashoffset="0" stroke-dasharray="5 2 2 2 2 2" stroke="rgba(255,255,255,1)"/><use href="#gl_22" transform="matrix(0.9963 0 0 0.9844 506.2514 20.72)" fill="rgba(0,0,0,1)" stroke-width="0" stroke-linejoin="miter" stroke-miterlimit="4" stroke-linecap="butt" stroke-dashoffset="0" stroke-dasharray="5 2 2 2 2 2" stroke="rgba(255,255,255,1)"/><defs><path id="gl_23" d="M2.1328125,0 l0,-12.7265625 l2.3085938,0 l0,2.390625 c1.0625,-1.78125 2.5078125,-2.671875 4.3359375,-2.671875 c2.4140625,0 3.6210938,1.4335938 3.6210938,4.3007812 l0,8.707031 l-2.3085938,0 l0,-8.074219 c0,-0.9921875 -0.15625,-1.6992188 -0.46875,-2.1210938 c-0.3046875,-0.4140625 -0.8203125,-0.62109375 -1.546875,-0.62109375 c-1.15625,0 -2.3671875,0.83203125 -3.6328125,2.4960938 l0,8.3203125 l-2.3085938,0 Z"/></defs><use href="#gl_23" transform="matrix(0.9963 0 0 0.9844 520.6595 20.72)" fill="rgba(0,0,0,1)" stroke-width="0" stroke-linejoin="miter" stroke-miterlimit="4" stroke-linecap="butt" stroke-dashoffset="0" stroke-dasharray="5 2 2 2 2 2" stroke="rgba(255,255,255,1)"/><use href="#gl_12" transform="matrix(0.9963 0 0 0.9844 535.0674 20.72)" fill="rgba(0,0,0,1)" stroke-width="0" stroke-linejoin="miter" stroke-miterlimit="4" stroke-linecap="butt" stroke-dashoffset="0" stroke-dasharray="5 2 2 2 2 2" stroke="rgba(255,255,255,1)"/>
 </g>
</svg>